<svg xmlns="http://www.w3.org/2000/svg" width="900" height="600" viewBox="0 0 900 600">
  <defs>
    <linearGradient id="g" x1="0" x2="1" y1="0" y2="1">
      <stop offset="0" stop-color="#8DA399"/>
      <stop offset="1" stop-color="#D4A373"/>
    </linearGradient>
    <filter id="shadow" x="-20%" y="-20%" width="140%" height="140%">
      <feDropShadow dx="0" dy="18" stdDeviation="18" flood-color="#000" flood-opacity="0.25"/>
    </filter>
  </defs>
  <rect width="900" height="600" rx="34" fill="url(#g)"/>
  <g filter="url(#shadow)" transform="translate(170 120)">
    <rect x="0" y="0" width="560" height="360" rx="24" fill="rgba(255,255,255,0.18)"/>
  </g>
  <g transform="translate(260 180)">
    <path d="M80 30c60-18 120-18 180 0v280c-60-20-120-20-180 0V30z" fill="#ffffff" opacity="0.92"/>
    <path d="M260 30c60-18 120-18 180 0v280c-60-20-120-20-180 0V30z" fill="#ffffff" opacity="0.86"/>
    <path d="M80 70h180" stroke="#8DA399" stroke-width="6" opacity="0.25"/>
    <path d="M80 110h180" stroke="#8DA399" stroke-width="6" opacity="0.25"/>
    <path d="M260 70h180" stroke="#D4A373" stroke-width="6" opacity="0.25"/>
    <path d="M260 110h180" stroke="#D4A373" stroke-width="6" opacity="0.25"/>
    <circle cx="450" cy="260" r="52" fill="rgba(14,165,233,0.22)"/>
    <path d="M430 260l16 16 28-36" fill="none" stroke="#D4A373" stroke-width="10" stroke-linecap="round" stroke-linejoin="round"/>
  </g>
  <g opacity="0.35">
    <circle cx="120" cy="110" r="14" fill="#fff"/>
    <circle cx="180" cy="90" r="10" fill="#fff"/>
    <circle cx="750" cy="500" r="18" fill="#fff"/>
    <circle cx="790" cy="455" r="10" fill="#fff"/>
  </g>
</svg>
